<svg width="500" height="500" viewBox="0 0 500 500" fill="none" xmlns="http://www.w3.org/2000/svg">
<circle cx="250" cy="250" r="246" fill="#F0FC02" stroke="#211577" stroke-width="8"/>
<circle cx="250" cy="250" r="148.5" stroke="#211577" stroke-width="8"/>
<rect x="217.5" y="135" width="65" height="230" fill="#211577"/>
<rect x="134.157" y="220.646" width="65" height="230" transform="rotate(-60 134.157 220.646)" fill="#211577"/>
<rect x="333.343" y="164.354" width="65" height="230" transform="rotate(60 333.343 164.354)" fill="#211577"/>
<path d="M360.572 438.959L350.317 436.318L354.469 429.288C354.598 429.068 354.563 428.789 354.383 428.609C354.202 428.429 353.923 428.393 353.704 428.523L346.673 432.674L344.033 422.419C343.969 422.172 343.746 422 343.492 422C343.237 422 343.014 422.172 342.951 422.419L340.31 432.674L333.279 428.523C333.06 428.393 332.781 428.429 332.601 428.609C332.42 428.789 332.385 429.068 332.515 429.288L336.666 436.318L326.411 438.959C326.164 439.023 325.992 439.245 325.992 439.5C325.992 439.755 326.164 439.977 326.411 440.041L336.666 442.681L332.515 449.712C332.385 449.932 332.42 450.211 332.601 450.391C332.708 450.499 332.851 450.555 332.996 450.555C333.093 450.555 333.191 450.529 333.28 450.477L340.31 446.326L342.951 456.581C343.015 456.827 343.237 457 343.492 457C343.747 457 343.969 456.828 344.033 456.581L346.673 446.326L353.704 450.477C353.792 450.529 353.89 450.555 353.988 450.555C354.132 450.555 354.275 450.499 354.383 450.391C354.563 450.211 354.599 449.932 354.469 449.712L350.318 442.681L360.573 440.041C360.819 439.977 360.992 439.755 360.992 439.5C360.992 439.245 360.819 439.023 360.572 438.959ZM347.419 443.428L349.191 442.971L352.404 448.412L346.963 445.2L347.419 443.428ZM349.333 441.782C349.33 441.782 349.328 441.783 349.325 441.784L347.13 442.349L345.466 440.685C345.248 440.467 344.895 440.467 344.677 440.685C344.458 440.903 344.458 441.257 344.677 441.475L346.34 443.139L345.775 445.334C345.775 445.336 345.774 445.339 345.773 445.341L343.492 454.202L341.21 445.339C341.209 445.338 340.643 443.139 340.643 443.139L347.13 436.651L349.312 437.213C349.316 437.214 358.193 439.5 358.193 439.5L349.333 441.782ZM347.419 435.572L346.963 433.8L352.404 430.588L349.191 436.028L347.419 435.572ZM345.774 433.661C345.774 433.662 346.34 435.861 346.34 435.861L343.492 438.71L340.643 435.861L341.208 433.666C341.209 433.664 341.21 433.661 341.21 433.659L343.492 424.798L345.774 433.661ZM339.564 435.572L337.792 436.029L334.579 430.588L340.02 433.8L339.564 435.572ZM339.853 436.651L342.702 439.5L339.853 442.349L328.79 439.5L339.853 436.651ZM339.564 443.428L340.02 445.2L334.579 448.412L337.792 442.972L339.564 443.428Z" fill="#211577"/>
<path d="M201.746 436.846L202.913 432.086C203.135 431.18 202.883 430.638 202.158 430.46C201.388 430.271 200.891 430.63 200.669 431.536L199.219 437.451L186.573 434.351L187.84 429.184C188.774 425.377 190.742 422.736 193.746 421.262C196.796 419.8 200.496 419.602 204.847 420.669C209.289 421.758 212.45 423.662 214.33 426.381C216.255 429.111 216.773 432.289 215.884 435.915L215.001 439.519C213.767 444.55 210.892 448.145 206.374 450.305L198.361 454.178C197.051 454.818 196.246 455.75 195.946 456.974L195.496 458.809L209.026 462.126L206.475 472.528L178.941 465.777L181.758 454.288C182.802 450.027 185.143 447.045 188.78 445.342L197.861 441.226C199.973 440.255 201.268 438.794 201.746 436.846Z" fill="#211577"/>
<path d="M241.522 473.568C238.717 475.77 234.873 476.667 229.989 476.261C225.106 475.855 221.463 474.335 219.06 471.7C216.661 469.018 215.658 465.306 216.053 460.562L217.88 438.588C218.275 433.844 219.875 430.372 222.68 428.17C225.486 425.968 229.33 425.07 234.213 425.477C239.096 425.883 242.739 427.403 245.143 430.038C247.546 432.673 248.55 436.362 248.156 441.106L246.328 463.08C245.934 467.824 244.332 471.32 241.522 473.568ZM229.871 463.327C229.79 464.304 230.144 464.825 230.935 464.89C231.726 464.956 232.162 464.501 232.243 463.524L234.337 438.341C234.415 437.411 234.058 436.913 233.267 436.847C232.477 436.782 232.043 437.214 231.965 438.144L229.871 463.327Z" fill="#211577"/>
<path d="M279.75 471.848C277.335 474.473 273.686 475.978 268.801 476.363C263.916 476.749 260.075 475.834 257.279 473.621C254.48 471.361 252.893 467.858 252.518 463.113L250.784 441.131C250.41 436.386 251.43 432.701 253.844 430.076C256.259 427.451 259.908 425.946 264.793 425.561C269.678 425.176 273.518 426.09 276.314 428.303C279.111 430.517 280.696 433.997 281.07 438.742L282.804 460.724C283.178 465.469 282.16 469.177 279.75 471.848ZM266.602 463.617C266.679 464.594 267.113 465.051 267.903 464.989C268.694 464.926 269.051 464.406 268.974 463.43L266.987 438.238C266.913 437.307 266.481 436.873 265.69 436.936C264.9 436.998 264.541 437.495 264.614 438.425L266.602 463.617Z" fill="#211577"/>
<path d="M295.591 451.262L293.228 441.535L297.99 440.378C299.124 440.103 299.547 439.376 299.261 438.196L297.675 431.666C297.465 430.805 297.02 430.457 296.34 430.622C295.615 430.798 295.357 431.317 295.566 432.179L296.987 438.028L284.403 441.085L283.23 436.256C282.304 432.447 282.79 429.207 284.687 426.537C286.583 423.867 289.777 421.987 294.266 420.897C298.846 419.784 302.518 419.973 305.281 421.463C308.078 422.896 309.934 425.495 310.848 429.259L311.708 432.796C312.644 436.65 312.051 439.844 309.929 442.376C311.522 442.806 312.919 443.715 314.121 445.104C315.323 446.493 316.177 448.23 316.684 450.316L317.708 454.534C319.713 462.787 315.863 468.092 306.159 470.45C296.545 472.785 290.73 469.803 288.715 461.505L287.574 456.811L300.703 453.622L302.124 459.472C302.388 460.56 302.906 461.011 303.677 460.824C304.448 460.636 304.701 459.998 304.436 458.91L302.635 451.496C302.338 450.271 301.577 449.808 300.353 450.105L295.591 451.262Z" fill="#211577"/>
<path d="M102.048 422.571L132.705 384.346L143.845 392.826L113.187 431.05L102.048 422.571Z" fill="#211577"/>
<path d="M129.023 381.753L93.6302 415.639L83.6873 405.783L110.839 379.787L102.984 372.001L111.226 364.11L129.023 381.753Z" fill="#211577"/>
<path d="M91.3108 341.857C94.9678 342.655 98.2424 345.089 101.135 349.159C104.027 353.23 105.212 357.073 104.69 360.688C104.13 364.329 101.819 367.52 97.7562 370.259L80.287 382.04C76.2244 384.779 72.3781 385.769 68.7481 385.01C65.091 384.212 61.8029 381.759 58.8836 377.651C55.9644 373.542 54.7791 369.699 55.3278 366.122C55.8494 362.507 58.1415 359.329 62.2041 356.59L79.6732 344.81C83.7358 342.07 87.615 341.086 91.3108 341.857ZM90.9821 357.947C92.0654 357.216 92.2963 356.413 91.6746 355.538C91.0529 354.664 90.2004 354.591 89.117 355.322L68.9782 368.902C67.9335 369.607 67.722 370.397 68.3437 371.272C68.9654 372.146 69.7985 372.232 70.8432 371.527L90.9821 357.947Z" fill="#211577"/>
<path d="M39.9057 343.236L84.0262 321.919L90.3775 334.396L46.257 355.712L39.9057 343.236Z" fill="#211577"/>
<path d="M81.9602 318.057L35.4732 333.547L30.8353 320.338L66.4975 308.454L62.8335 298.019L73.6583 294.412L81.9602 318.057Z" fill="#211577"/>
<path d="M65.7824 265.852C68.7102 268.136 70.5779 271.742 71.3855 276.669C72.1931 281.597 71.5707 285.59 69.5184 288.648C67.42 291.714 63.9499 293.623 59.1081 294.376L38.2885 297.615C33.4467 298.368 29.5657 297.625 26.6454 295.388C23.7176 293.104 21.8461 289.475 21.031 284.502C20.2158 279.528 20.8382 275.535 22.898 272.523C24.9503 269.464 28.3974 267.559 33.2392 266.806L54.0588 263.567C58.9006 262.814 62.8085 263.576 65.7824 265.852ZM58.4347 280.313C59.7259 280.112 60.2846 279.482 60.1111 278.423C59.9375 277.364 59.2051 276.935 57.9139 277.135L33.9126 280.869C32.6675 281.062 32.1318 281.689 32.3054 282.748C32.479 283.807 33.1883 284.24 34.4333 284.046L58.4347 280.313Z" fill="#211577"/>
<path d="M40.2023 215.903L39.0353 229.363L32.6867 228.841C31.4775 228.741 30.8305 229.179 30.7459 230.156C30.6652 231.086 31.2295 231.6 32.4388 231.7L56.8562 233.709C58.0655 233.809 58.7104 233.394 58.7911 232.464C58.8757 231.487 58.3134 230.949 57.1042 230.85L49.7789 230.247L50.946 216.788L56.7365 217.264C61.5269 217.658 65.063 219.284 67.3447 222.141C69.6305 224.951 70.5637 228.774 70.1445 233.609C69.7252 238.444 68.1449 242.083 65.4036 244.527C62.6664 246.923 58.9025 247.925 54.112 247.531L32.7642 245.774C27.9272 245.376 24.3891 243.773 22.1498 240.967C19.8641 238.157 18.9329 234.311 19.3562 229.429C19.7795 224.547 21.3597 220.908 24.097 218.511C26.7878 216.111 30.5516 215.109 35.3886 215.507L40.2023 215.903Z" fill="#211577"/>
<path d="M26.95 192.692L74.7797 203.337L71.5834 216.967L23.7537 206.322L26.95 192.692Z" fill="#211577"/>
<path d="M50.5433 160.552L47.9436 167.277L83.2335 180.224L78.2107 193.217L42.9209 180.27L40.3212 186.995L29.6093 183.065L39.8315 156.622L50.5433 160.552Z" fill="#211577"/>
<path d="M82.856 145.146L98.0422 153.843L90.8456 165.77L75.7809 157.143L43.5868 149.271L50.2048 138.303L65.4983 143.029L53.785 132.369L60.2222 121.701L82.856 145.146Z" fill="#211577"/>
<path d="M111.105 137.028L75.1421 103.746L92.54 85.9047L100.914 93.6546L93.2903 101.473L98.6847 106.465L105.184 99.7996L112.891 106.932L106.391 113.597L112.505 119.255L120.177 111.387L128.551 119.137L111.105 137.028Z" fill="#211577"/>
<path d="M143.485 108.399L127.97 92.9387L140.728 110.319L130.619 117.361L101.624 77.8602L115.582 68.1373L129.951 83.4566L119.66 65.2964L133.617 55.5734L162.611 95.0745L152.215 102.317L139.872 85.5005L149.803 103.997L143.485 108.399Z" fill="#211577"/>
<path d="M164.517 95.4309L143.624 51.1083L166.372 40.9317L171.237 51.2525L161.269 55.7119L164.403 62.3603L172.901 58.5584L177.378 68.0561L168.88 71.858L172.431 79.3928L182.463 74.9048L187.328 85.2257L164.517 95.4309Z" fill="#211577"/>
<path d="M200.015 64.5004L199.338 64.677L203.79 80.8763L190.311 84.3924L177.325 37.1446L192.226 33.2574C201.664 30.7956 207.446 33.4345 209.573 41.1741L211.002 46.3714C212.127 50.4662 211.357 53.8258 208.691 56.4503C212.322 57.3357 214.663 59.6908 215.714 63.5156L217.829 71.2102C218.509 73.6851 219.226 75.4995 219.978 76.6535L206.703 80.1165C206.024 79.2326 205.308 77.4182 204.553 74.6733L202.197 66.1012C201.826 64.7513 201.099 64.2177 200.015 64.5004ZM197.214 54.3083C198.297 54.0256 198.654 53.2093 198.283 51.8594L196.502 45.3797C196.131 44.0297 195.403 43.4961 194.32 43.7788L193.642 43.9555L196.536 54.485L197.214 54.3083Z" fill="#211577"/>
<path d="M235.649 58.5264L234.936 49.946L249.799 48.7725L251.929 74.3741L241.113 75.228L240.875 72.3679C239.366 75.0617 236.821 76.5499 233.239 76.8328C229.471 77.1303 226.495 76.2651 224.313 74.2373C222.173 72.1593 220.922 68.9345 220.558 64.5629L218.655 41.6819C218.252 36.8453 219.274 33.0899 221.721 30.4157C224.164 27.695 227.851 26.14 232.782 25.7507C242.738 24.9646 248.12 29.4315 248.929 39.1513L249.3 43.6158L235.762 44.6847L235.263 38.6854C235.166 37.5228 234.653 36.9782 233.722 37.0516C232.792 37.1251 232.375 37.7431 232.472 38.9058L234.526 63.6005C234.627 64.8097 235.189 65.3738 236.212 65.293C237.236 65.2122 237.697 64.5672 237.597 63.3581L237.185 58.4052L235.649 58.5264Z" fill="#211577"/>
<path d="M254.548 74.8001L258.968 25.9998L283.797 28.1339L282.767 39.4974L271.887 38.5623L271.225 45.8823L280.5 46.6796L279.553 57.1368L270.277 56.3395L269.526 64.6356L280.476 65.5767L279.447 76.9402L254.548 74.8001Z" fill="#211577"/>
<path d="M301.113 82.1076L299.748 62.9733L295.01 80.5458L282.599 77.3701L295.356 30.0596L305.867 32.7495L306.992 51.9668L311.767 34.2592L324.177 37.4349L311.421 84.7454L301.113 82.1076Z" fill="#211577"/>
<path d="M354.477 70.6903L342.17 65.1156L344.914 59.3669C345.437 58.2719 345.252 57.5222 344.359 57.1178C343.509 56.7327 342.823 57.0876 342.3 58.1826L331.747 80.2931C331.224 81.3881 331.388 82.1281 332.238 82.5133C333.131 82.9177 333.838 82.5723 334.361 81.4774L337.527 74.8442L349.833 80.4189L347.33 85.6623C345.26 90.0001 342.47 92.7574 338.962 93.934C335.496 95.1298 331.553 94.7264 327.132 92.7238C322.711 90.7211 319.832 88.0339 318.494 84.662C317.199 81.3095 317.587 77.4643 319.657 73.1264L328.884 53.7955C330.975 49.4155 333.743 46.6487 337.189 45.4949C340.655 44.299 344.62 44.7121 349.083 46.734C353.546 48.7559 356.426 51.4431 357.721 54.7957C359.036 58.1062 358.648 61.9514 356.557 66.3314L354.477 70.6903Z" fill="#211577"/>
<path d="M370.543 96.7077L360.324 110.914L348.819 103.06L358.957 88.9671L369.86 58.1118L380.44 65.3346L374.255 79.9232L386.163 69.242L396.453 76.2675L370.543 96.7077Z" fill="#211577"/>
<path d="M399.759 124.226L399.291 123.705L386.511 134.61L377.198 124.251L414.473 92.4458L424.769 103.898C431.289 111.151 431.497 117.382 425.391 122.592L421.291 126.091C418.06 128.848 414.643 129.617 411.039 128.399C411.874 131.98 410.783 135.057 407.765 137.632L401.695 142.812C399.742 144.478 398.409 145.891 397.696 147.051L388.523 136.848C389.024 135.87 390.356 134.457 392.522 132.609L399.285 126.838C400.35 125.93 400.508 125.059 399.759 124.226ZM407.8 117.365C408.548 118.198 409.455 118.16 410.52 117.251L415.632 112.889C416.697 111.981 416.855 111.11 416.107 110.277L415.639 109.756L407.332 116.845L407.8 117.365Z" fill="#211577"/>
<path d="M398.587 148.615L440.643 123.47L453.926 144.554L444.133 150.41L438.312 141.17L432.004 144.942L436.966 152.819L427.954 158.207L422.992 150.33L415.842 154.605L421.7 163.903L411.907 169.759L398.587 148.615Z" fill="#211577"/>
<path d="M455.702 187.643L450.583 175.215L454.495 173.686C455.625 173.245 456.021 172.614 455.684 171.794C455.346 170.974 454.612 170.785 453.482 171.227L451.591 171.966C450.592 172.357 449.924 172.818 449.588 173.35C449.296 173.865 449.068 174.906 448.906 176.472L448.342 181.352C447.966 184.605 447.159 187.3 445.92 189.437C444.742 191.601 442.632 193.278 439.589 194.467L436.656 195.614C435.004 196.259 433.363 196.625 431.733 196.711C430.147 196.78 428.51 196.543 426.823 196C425.136 195.457 423.515 194.338 421.958 192.642C420.463 190.972 419.165 188.799 418.063 186.124C415.93 180.946 415.488 176.81 416.737 173.717C418.03 170.607 420.284 168.423 423.501 167.166L428.325 165.28L433.763 178.484L429.265 180.242C428.135 180.684 427.756 181.358 428.13 182.264C428.503 183.17 429.254 183.403 430.384 182.961L432.275 182.222C433.405 181.78 434.142 181.241 434.486 180.606C434.848 180.014 435.111 179.059 435.275 177.743L435.877 172.773C436.688 166.044 439.593 161.702 444.591 159.748L447.786 158.499C451.176 157.174 454.494 157.205 457.74 158.591C461.046 160.004 463.668 163.062 465.605 167.765C467.525 172.426 467.817 176.319 466.481 179.447C465.206 182.6 463.134 184.737 460.266 185.859L455.702 187.643Z" fill="#211577"/>
<path d="M476.603 207.909C478.607 217.502 475.101 223.193 466.083 224.981L459.079 226.37C450.016 228.167 444.482 224.269 442.477 214.677L442.134 213.032L428.195 215.796L425.332 202.092L473.396 192.561L476.603 207.909ZM452.854 211.977C453.083 213.073 453.884 213.485 455.258 213.213L464.252 211.429C465.626 211.157 466.198 210.472 465.969 209.376L465.754 208.348L452.639 210.949L452.854 211.977Z" fill="#211577"/>
<path d="M434.772 260.241C432.204 257.578 430.874 253.751 430.783 248.758C430.693 243.766 431.883 239.895 434.353 237.145C436.87 234.395 440.579 232.977 445.478 232.893L466.545 232.53C471.444 232.446 475.178 233.712 477.746 236.328C480.314 238.99 481.644 242.841 481.736 247.881C481.827 252.92 480.637 256.791 478.166 259.494C475.695 262.243 472.011 263.66 467.111 263.745L446.044 264.108C441.145 264.192 437.388 262.903 434.772 260.241ZM444.122 246.918C442.816 246.941 442.172 247.489 442.192 248.562C442.211 249.635 442.874 250.16 444.181 250.138L468.467 249.719C469.727 249.698 470.347 249.15 470.328 248.077C470.308 247.004 469.668 246.478 468.409 246.5L444.122 246.918Z" fill="#211577"/>
<path d="M428.249 285.29L447.278 282.003L429.314 279.081L431.478 266.455L479.842 274.323L478.009 285.017L458.878 288.074L476.98 291.019L474.816 303.645L426.452 295.777L428.249 285.29Z" fill="#211577"/>
<path d="M425.449 297.902L471.639 314.256L466.648 327.636C464.756 332.707 462.234 336.195 459.084 338.099C455.977 340.019 452.334 340.239 448.155 338.759L427.37 331.399C423.147 329.904 420.455 327.441 419.294 324.011C418.178 320.596 418.565 316.353 420.458 311.281L425.449 297.902ZM430.878 315.787C430.438 316.968 430.877 317.792 432.197 318.259L453.049 325.642C454.368 326.109 455.249 325.753 455.689 324.572L456.056 323.588L431.245 314.804L430.878 315.787Z" fill="#211577"/>
<path d="M413.016 328.523L455.813 352.386L443.189 373.872L433.224 368.315L438.755 358.9L432.336 355.321L427.62 363.348L418.449 358.234L423.165 350.207L415.89 346.15L410.323 355.626L400.357 350.069L413.016 328.523Z" fill="#211577"/>
<path d="M402.117 373.887L402.569 373.352L389.463 362.842L398.454 352.202L436.68 382.857L426.74 394.62C420.445 402.07 414.167 403.284 407.905 398.263L403.7 394.89C400.387 392.234 399.057 389.074 399.709 385.411C396.217 386.797 392.924 386.249 389.83 383.767L383.604 378.775C381.602 377.169 379.956 376.118 378.665 375.621L387.52 365.141C388.592 365.463 390.239 366.514 392.459 368.295L399.395 373.857C400.487 374.732 401.394 374.743 402.117 373.887ZM410.363 380.5C409.64 381.355 409.825 382.221 410.917 383.097L416.16 387.301C417.252 388.177 418.159 388.187 418.882 387.332L419.334 386.797L410.815 379.965L410.363 380.5Z" fill="#211577"/>
<path d="M375.848 420.314L386.227 411.775L388.978 414.949C389.773 415.865 390.512 416.042 391.197 415.479C391.882 414.916 391.827 414.175 391.032 413.259L389.702 411.725C388.999 410.914 388.335 410.433 387.711 410.282C387.117 410.167 386.035 410.272 384.465 410.597L379.554 411.556C376.281 412.196 373.407 412.264 370.934 411.761C368.456 411.324 366.146 409.871 364.007 407.403L361.943 405.022C360.782 403.683 359.895 402.268 359.282 400.778C358.701 399.323 358.399 397.729 358.377 395.995C358.356 394.261 358.914 392.412 360.052 390.449C361.185 388.55 362.868 386.682 365.102 384.844C369.427 381.286 373.29 379.617 376.693 379.839C380.125 380.095 382.973 381.528 385.235 384.137L388.628 388.051L377.601 397.124L374.437 393.475C373.642 392.558 372.866 392.411 372.11 393.033C371.353 393.656 371.372 394.426 372.167 395.343L373.496 396.876C374.291 397.793 375.052 398.315 375.779 398.442C376.47 398.598 377.48 398.552 378.809 398.305L383.82 397.354C390.603 396.062 395.752 397.444 399.267 401.499L401.514 404.091C403.898 406.841 404.946 409.937 404.656 413.377C404.36 416.882 402.249 420.251 398.321 423.482C394.429 426.685 390.751 428.14 387.288 427.848C383.819 427.621 381.075 426.344 379.058 424.017L375.848 420.314Z" fill="#211577"/>
<path d="M256.18 161.22V160.366L255.446 159.93L254.68 161.22C255.446 159.93 255.446 159.93 255.446 159.93L255.445 159.93L255.444 159.929L255.441 159.927L255.43 159.92L255.393 159.899C255.362 159.881 255.318 159.856 255.263 159.824C255.151 159.761 254.993 159.674 254.796 159.569C254.404 159.361 253.852 159.083 253.216 158.804C252.001 158.273 250.257 157.639 248.684 157.648C247.137 157.657 245.426 158.289 244.234 158.818C243.609 159.094 243.069 159.369 242.684 159.576C242.491 159.679 242.335 159.766 242.226 159.828C242.172 159.859 242.129 159.884 242.098 159.901L242.062 159.923L242.052 159.929L242.048 159.931L242.047 159.932L242.046 159.932C242.046 159.932 242.046 159.932 242.815 161.22L242.046 159.932L241.276 160.392L241.317 161.288L249.091 333.124L249.131 334.027L249.948 334.413L250.589 333.056C249.948 334.413 249.948 334.413 249.949 334.413L249.949 334.413L249.95 334.413L249.952 334.414L249.957 334.417L249.973 334.424C249.987 334.43 250.004 334.439 250.026 334.448C250.07 334.468 250.131 334.495 250.206 334.527C250.355 334.591 250.563 334.675 250.802 334.761C251.228 334.913 251.946 335.14 252.623 335.14C253.297 335.14 254.02 334.914 254.449 334.763C254.69 334.678 254.901 334.594 255.051 334.531C255.127 334.499 255.188 334.472 255.233 334.453L255.286 334.429L255.302 334.421L255.308 334.419L255.31 334.418L255.31 334.418L255.311 334.417C255.311 334.417 255.311 334.417 254.68 333.056L255.311 334.417L256.18 334.014V333.056V161.22Z" fill="white" stroke="#301CBE" stroke-width="3"/>
<path d="M242.316 173.997C239.487 174.464 237.423 178.191 236.654 180.917C232.791 183.013 230.487 186.679 229.826 190.321C229.233 193.59 229.319 200.188 229.826 201.628C230.838 204.506 233.094 217.846 238.704 221.525C239.723 222.193 240.391 222.961 241.412 223.54L240.467 206.474C237.691 204.066 237.175 202.708 236.5 201.628C234.822 198.944 237.009 190.062 238.407 187.686C239.595 187.756 242.96 187.323 246.986 187.156C252.019 186.946 253.64 182.279 253.64 178.82C253.64 175.347 246.592 173.291 242.316 173.997Z" fill="white"/>
<path d="M270.585 228.517C270.753 222.309 259.215 217.636 259.215 217.636C259.215 217.636 259.145 224.751 259.145 231.251L252.172 239.845C251.338 241.052 240.475 254.321 238.915 257.052C237.534 259.469 233.934 267.575 237.046 272.882C237.894 274.328 241.145 277.666 244.844 281.245V269.702C243.838 266.347 252.179 258.052 254.626 255.116C259.519 249.034 270.286 239.588 270.585 228.517Z" fill="white"/>
<path d="M257.61 303.375C260.159 302.133 267.251 297.635 266.607 293.802C266.395 292.535 262.021 284.84 259.151 282.384V291.718C260.002 294.211 255.602 296.96 252.572 298.769C248.549 301.169 240.621 304.55 239.918 312.004C239.612 315.25 241.992 318.692 245.604 321.604L245.276 313.874C245.276 308.139 255.673 304.319 257.61 303.375Z" fill="white"/>
<path d="M254.119 340.852C259.562 339.551 263.419 336.012 263.419 330.171C263.419 328.24 261.404 326.052 259.163 324.289V330.429C258.765 332.299 254.119 340.852 254.119 340.852Z" fill="white"/>
<path d="M242.316 173.997C239.487 174.464 237.423 178.191 236.654 180.917C232.791 183.013 230.487 186.679 229.826 190.321C229.233 193.59 229.319 200.188 229.826 201.628C230.838 204.506 233.094 217.846 238.704 221.525C239.723 222.193 240.391 222.961 241.412 223.54L240.467 206.474C237.691 204.066 237.175 202.708 236.5 201.628C234.822 198.944 237.009 190.062 238.407 187.686C239.595 187.756 242.96 187.323 246.986 187.156C252.019 186.946 253.64 182.279 253.64 178.82C253.64 175.347 246.592 173.291 242.316 173.997Z" stroke="#301CBE" stroke-width="3"/>
<path d="M270.585 228.517C270.753 222.309 259.215 217.636 259.215 217.636C259.215 217.636 259.145 224.751 259.145 231.251L252.172 239.845C251.338 241.052 240.475 254.321 238.915 257.052C237.534 259.469 233.934 267.575 237.046 272.882C237.894 274.328 241.145 277.666 244.844 281.245V269.702C243.838 266.347 252.179 258.052 254.626 255.116C259.519 249.034 270.286 239.588 270.585 228.517Z" stroke="#301CBE" stroke-width="3"/>
<path d="M257.61 303.375C260.159 302.133 267.251 297.635 266.607 293.802C266.395 292.535 262.021 284.84 259.151 282.384V291.718C260.002 294.211 255.602 296.96 252.572 298.769C248.549 301.169 240.621 304.55 239.918 312.004C239.612 315.25 241.992 318.692 245.604 321.604L245.276 313.874C245.276 308.139 255.673 304.319 257.61 303.375Z" stroke="#301CBE" stroke-width="3"/>
<path d="M254.119 340.852C259.562 339.551 263.419 336.012 263.419 330.171C263.419 328.24 261.404 326.052 259.163 324.289V330.429C258.765 332.299 254.119 340.852 254.119 340.852Z" stroke="#301CBE" stroke-width="3"/>
<g clip-path="url(#clip0_2_2)">
<path d="M171.085 438.959L160.83 436.318L164.981 429.288C165.111 429.068 165.075 428.789 164.895 428.609C164.715 428.429 164.436 428.393 164.216 428.523L157.185 432.674L154.545 422.419C154.481 422.172 154.259 422 154.004 422C153.749 422 153.527 422.172 153.463 422.419L150.822 432.674L143.792 428.523C143.572 428.393 143.293 428.429 143.113 428.609C142.933 428.789 142.897 429.068 143.027 429.288L147.178 436.318L136.923 438.959C136.676 439.023 136.504 439.245 136.504 439.5C136.504 439.755 136.676 439.977 136.923 440.041L147.178 442.681L143.027 449.712C142.897 449.932 142.933 450.211 143.113 450.391C143.221 450.499 143.363 450.555 143.508 450.555C143.605 450.555 143.704 450.529 143.792 450.477L150.823 446.326L153.463 456.581C153.527 456.827 153.749 457 154.004 457C154.259 457 154.481 456.828 154.545 456.581L157.186 446.326L164.216 450.477C164.305 450.529 164.403 450.555 164.5 450.555C164.645 450.555 164.788 450.499 164.895 450.391C165.075 450.211 165.111 449.932 164.981 449.712L160.83 442.681L171.085 440.041C171.332 439.977 171.504 439.755 171.504 439.5C171.504 439.245 171.331 439.023 171.085 438.959ZM157.932 443.428L159.704 442.971L162.916 448.412L157.475 445.2L157.932 443.428ZM159.845 441.782C159.843 441.782 159.84 441.783 159.837 441.784L157.643 442.349L155.979 440.685C155.76 440.467 155.407 440.467 155.189 440.685C154.971 440.903 154.971 441.257 155.189 441.475L156.853 443.139L156.288 445.334C156.287 445.336 156.286 445.339 156.286 445.341L154.004 454.202L151.722 445.339C151.722 445.338 151.155 443.139 151.155 443.139L157.643 436.651L159.825 437.213C159.828 437.214 168.706 439.5 168.706 439.5L159.845 441.782ZM157.932 435.572L157.475 433.8L162.916 430.588L159.704 436.028L157.932 435.572ZM156.286 433.661C156.286 433.662 156.853 435.861 156.853 435.861L154.004 438.71L151.155 435.861L151.72 433.666C151.721 433.664 151.722 433.661 151.722 433.659L154.004 424.798L156.286 433.661ZM150.076 435.572L148.304 436.029L145.092 430.588L150.533 433.8L150.076 435.572ZM150.365 436.651L153.214 439.5L150.365 442.349L139.302 439.5L150.365 436.651ZM150.076 443.428L150.533 445.2L145.092 448.412L148.304 442.972L150.076 443.428Z" fill="#211577"/>
</g>
<defs>
<clipPath id="clip0_2_2">
<rect width="35" height="35" fill="white" transform="translate(136.504 422)"/>
</clipPath>
</defs>
</svg>
